# xmcd
#
# Track frame offsets:
#	150
#	12469
#	28747
#	43376
#	53227
#	65141
#	89149
#	100091
#	114997
#	133063
#	148593
#	158039
#	174727
#
# Disc length: 2600
#
# Revision: 1
# Processed by: cddbd v1.5.1PL0 Copyright (c) Steve Scherf et al.
# Submitted via: ExactAudioCopy v0.90b4
# Normalized: r0:DSETVAR1,TDELIM( - )
#
DISCID=c00a260d
DTITLE=Various Artist - A Country 99-5 Christmas
DYEAR=2002
DGENRE=Country
TTITLE0=Kenny Rodgers - My Favorite Things
TTITLE1=Reba McEntire - Silent Night
TTITLE2=Sawyer Brown - Little Town of Bethlehem
TTITLE3=Brenda Lee - Jingle Bell Rock
TTITLE4=Randy Travis - Pretty Paper
TTITLE5=Travis Tritt - Silver Bells
TTITLE6=Kathy Mattea - Somebody Talkin About Jesus
TTITLE7=Lee Greenwood - Let It Snow! Let It Snow! Let It Snow!
TTITLE8=Sammy Kershaw - Daddy Stuff
TTITLE9=Vince Vance and The Valiants - Christmas Just Aint Christmas Without You
TTITLE10=Rodger Miller - Old Toy Trains
TTITLE11=Clay Walker - O Come All Ye Faithful
TTITLE12=Vince and Jenny Gill - Let There Be Peace On Earth
EXTD=
EXTT0=
EXTT1=
EXTT2=
EXTT3=
EXTT4=
EXTT5=
EXTT6=
EXTT7=
EXTT8=
EXTT9=
EXTT10=
EXTT11=
EXTT12=
PLAYORDER=
